<svg width="102" height="102" viewBox="0 0 102 102" fill="none" xmlns="http://www.w3.org/2000/svg">
<path d="M72.2 72L63 58.6761V53.7183L66.2 50H70.6L75 53.7183" stroke="black" stroke-width="3" stroke-linecap="round" stroke-linejoin="round"/>
<path d="M77.8 72L87 58.6761V53.7183L83.8 50H79.4L75 53.7183" stroke="black" stroke-width="3" stroke-linecap="round" stroke-linejoin="round"/>
<path d="M78 72.2L91.3239 63L96.2817 63L100 66.2L100 70.6L96.2817 75" stroke="black" stroke-width="3" stroke-linecap="round" stroke-linejoin="round"/>
<path d="M78 77.8L91.3239 87L96.2817 87L100 83.8L100 79.4L96.2817 75" stroke="black" stroke-width="3" stroke-linecap="round" stroke-linejoin="round"/>
<path d="M72.2 78L63 91.3239V96.2817L66.2 100H70.6L75 96.2817" stroke="black" stroke-width="3" stroke-linecap="round" stroke-linejoin="round"/>
<path d="M77.8 78L87 91.3239V96.2817L83.8 100H79.4L75 96.2817" stroke="black" stroke-width="3" stroke-linecap="round" stroke-linejoin="round"/>
<path d="M72 72.2L58.6761 63L53.7183 63L50 66.2L50 70.6L53.7183 75" stroke="black" stroke-width="3" stroke-linecap="round" stroke-linejoin="round"/>
<path d="M72 77.8L58.6761 87L53.7183 87L50 83.8L50 79.4L53.7183 75" stroke="black" stroke-width="3" stroke-linecap="round" stroke-linejoin="round"/>
<path d="M57.4 75.2H65.4" stroke="black" stroke-width="3" stroke-linecap="round" stroke-linejoin="round"/>
<path d="M75 57.6L75 65.6" stroke="black" stroke-width="3" stroke-linecap="round" stroke-linejoin="round"/>
<path d="M84.6001 75.2H92.6001" stroke="black" stroke-width="3" stroke-linecap="round" stroke-linejoin="round"/>
<path d="M75.0001 84.8L75.0001 92.8" stroke="black" stroke-width="3" stroke-linecap="round" stroke-linejoin="round"/>
<path d="M85 32V2H2V32H85Z" fill="#39ACD0"/>
<path d="M2 40H48V61.5L52 58H58V51.5L63.5 45H72.5L75 47L77.5 45H85V32H2V40Z" fill="#E8B73B"/>
<path d="M85 2H86.5C86.5 1.17157 85.8284 0.5 85 0.5V2ZM2 2V0.5C1.17157 0.5 0.5 1.17157 0.5 2L2 2ZM2 40H0.5C0.5 40.8284 1.17157 41.5 2 41.5L2 40ZM48 40H49.5C49.5 39.1716 48.8284 38.5 48 38.5V40ZM52 58V56.5C51.6367 56.5 51.2857 56.6319 51.0122 56.8711L52 58ZM58 58V59.5C58.8284 59.5 59.5 58.8284 59.5 58H58ZM58 51.5L56.8549 50.5311C56.6258 50.8019 56.5 51.1452 56.5 51.5H58ZM63.5 45V43.5C63.0588 43.5 62.6399 43.6943 62.3549 44.0311L63.5 45ZM85 45V46.5C85.8284 46.5 86.5 45.8284 86.5 45H85ZM72.5 45L73.437 43.8287C73.1711 43.6159 72.8406 43.5 72.5 43.5V45ZM75 47L74.063 48.1713C74.6108 48.6096 75.3892 48.6096 75.937 48.1713L75 47ZM77.5 45V43.5C77.1594 43.5 76.8289 43.6159 76.563 43.8287L77.5 45ZM48 61.5H46.5C46.5 62.0886 46.8442 62.6227 47.3802 62.8659C47.9161 63.1092 48.5448 63.0164 48.9878 62.6289L48 61.5ZM86.5 32V2H83.5V32H86.5ZM85 0.5H2V3.5H85V0.5ZM2 41.5H48V38.5H2V41.5ZM0.5 2V32H3.5V2H0.5ZM0.5 32V40H3.5V32H0.5ZM52 59.5H58V56.5H52V59.5ZM85 30.5H2V33.5H85V30.5ZM59.5 58V51.5H56.5V58H59.5ZM59.1451 52.4689L64.6451 45.9689L62.3549 44.0311L56.8549 50.5311L59.1451 52.4689ZM86.5 45V32H83.5V45H86.5ZM63.5 46.5H72.5V43.5H63.5V46.5ZM71.563 46.1713L74.063 48.1713L75.937 45.8287L73.437 43.8287L71.563 46.1713ZM75.937 48.1713L78.437 46.1713L76.563 43.8287L74.063 45.8287L75.937 48.1713ZM77.5 46.5H85V43.5H77.5V46.5ZM46.5 40V61.5H49.5V40H46.5ZM48.9878 62.6289L52.9878 59.1289L51.0122 56.8711L47.0122 60.3711L48.9878 62.6289Z" fill="black"/>
<path d="M2 45H43V79.2973L22.5 99L2 79.2973V45Z" stroke="black" stroke-width="3" stroke-linejoin="round"/>
<path d="M9.44721 52.1056L8 51.382V53V78.2581V79.2581H9H19.6358L21.5667 84.2783L22.5 86.705L23.4333 84.2783L25.3642 79.2581H36H37V78.2581V53V51.382L35.5528 52.1056L32.9399 53.412L32.5464 53.6087L32.4256 54.0317L30.6836 60.1285L30.6295 60.3179L30.6513 60.5137L32.2698 75.0806H25.7345L26.5468 60.4587L26.5594 60.2322L26.4731 60.0225L23.4247 52.6193L22.5 50.3736L21.5753 52.6193L18.5269 60.0225L18.4406 60.2322L18.4532 60.4587L19.2655 75.0806H12.7302L14.3487 60.5137L14.3705 60.3179L14.3164 60.1285L12.5744 54.0317L12.4536 53.6087L12.0601 53.412L9.44721 52.1056Z" fill="#E8B73B" stroke="black" stroke-width="2" stroke-linecap="round"/>
</svg>
