<svg width="98" height="98" viewBox="0 0 98 98" fill="none" xmlns="http://www.w3.org/2000/svg">
<path d="M80.7372 29.7375L52.537 29.7375L49.1327 1.49998L83.9754 1.49998L80.7372 29.7375Z" stroke="black" stroke-width="3"/>
<rect x="52.7121" y="29.3095" width="27.6739" height="7.90682" stroke="black" stroke-width="3"/>
<path d="M85.475 80.1762V88.4284H79.9093V85.975V84.475H78.4093H74.4559H72.9559V85.975V88.4284H66.7313V85.975V84.475H65.2313H61.2778H59.7778V85.975V88.4284H53.5532V85.975V84.475H52.0532H48.0998H46.5998V85.975V88.4284H40.3752V85.975V84.475H38.8752H34.9218H33.4218V85.975V88.4284H27.1972V85.975V84.475H25.6972H21.7437H20.2437V85.975V88.4284H14.0191V85.975V84.475H12.5191H8.56572H7.06572V85.975V88.4284H1.5V80.2883L3.27293 74.9695L8.62802 70.2094L16.1774 68.3221L16.2057 68.315L16.2336 68.3069L32.0473 63.6946L32.224 63.643L32.3831 63.5502L48.1967 54.3256L48.7528 54.0012L48.9008 53.3747L52.6734 37.3985H80.6389L81.523 57.7075L81.5273 57.8059L81.5444 57.9029L85.475 80.1762Z" stroke="black" stroke-width="3"/>
<circle cx="42.8286" cy="64.2312" r="1.9767" fill="black"/>
<circle cx="49.4176" cy="60.2778" r="1.9767" fill="black"/>
<circle cx="54.6888" cy="55.0066" r="1.9767" fill="black"/>
<circle cx="56.0067" cy="48.4176" r="1.9767" fill="black"/>
<circle cx="57.3244" cy="41.8286" r="1.9767" fill="black"/>
<path d="M93.2857 53.6429C93.2857 53.5202 93.3008 53.398 93.3305 53.2791L96.5 40.6011V26.3853L89.8292 14.2565L80.9107 9.5H69.7822L64.7242 15.682L63.511 25.9945L64.7685 36.0543L66.6571 46.1269L71.0885 56.2559C71.1464 56.3881 71.1848 56.5279 71.2027 56.6711L72.4884 66.9568C72.5044 67.0844 72.5038 67.2136 72.4868 67.3411L71.2011 76.984L71.2012 76.984L71.1992 76.9978L69.9702 85.6009L73.3936 94.1594L82.5714 96.4538L91.7493 94.1594L95.1919 85.5527L94.5786 77.5792L93.2973 67.3289C93.2896 67.2672 93.2857 67.2051 93.2857 67.1429V53.6429Z" stroke="white" stroke-width="3" stroke-linejoin="round"/>
<path d="M90.7365 52.1429C90.7365 52.021 90.7513 51.8997 90.7807 51.7814L93.9286 39.1023V25.1135L87.967 14.7084L80.1757 10.7857L70.5973 10.7857L67.0808 15.0349L66.0795 24.7143L67.1197 34.7703L69.2038 44.8431L73.4057 54.9979C73.4611 55.1318 73.4969 55.273 73.5118 55.4171L74.5758 65.7028C74.5864 65.8054 74.5864 65.9089 74.5758 66.0115L73.5118 76.2972L73.5092 76.32L72.536 84.5007L75.2928 91.1169L82.6569 92.6116L89.8486 91.1206L92.6132 84.4856L91.8085 76.2972L91.8077 76.2896L90.7444 66.0115C90.7391 65.9602 90.7365 65.9087 90.7365 65.8571V52.1429Z" fill="white" stroke="black" stroke-width="3" stroke-linejoin="round"/>
<path d="M68 38.5L78.5 42L83.5 52.5V65L81 73.5L73.5 76" stroke="black" stroke-width="3" stroke-linecap="round" stroke-linejoin="round"/>
</svg>
