<svg width="102" height="102" viewBox="0 0 102 102" fill="none" xmlns="http://www.w3.org/2000/svg">
<path d="M28.0472 14.6226C36.2151 9.6883 45.8727 7.92583 55.2261 9.66263C64.5795 11.3994 72.9929 16.5174 78.9035 24.0659C84.814 31.6144 87.8198 41.0802 87.3626 50.705C86.9054 60.3298 83.0163 69.4593 76.4176 76.3976C69.8189 83.336 60.9593 87.6114 51.4845 88.4298C42.0097 89.2482 32.5638 86.5539 24.9014 80.8474C17.2391 75.141 11.8812 66.8102 9.82301 57.4026C7.76483 47.9951 9.14629 38.1503 13.7108 29.697" stroke="black" stroke-width="5" stroke-linecap="round"/>
<path d="M59.8269 16.5926C67.2547 19.3588 73.4918 24.6745 77.4543 31.6162C81.4168 38.5579 82.8542 46.6867 81.5172 54.5901C80.1803 62.4935 76.1534 69.6722 70.1366 74.8794C64.1198 80.0866 56.4928 82.9936 48.5804 83.0951C40.668 83.1965 32.9701 80.4861 26.8241 75.4341C20.6781 70.382 16.4729 63.3079 14.9388 55.4409C13.4048 47.5739 14.6389 39.4113 18.4262 32.3711C22.2135 25.331 28.3149 19.8578 35.6704 16.9023" stroke="black" stroke-linecap="round" stroke-dasharray="0.1 14"/>
<line x1="19.2601" y1="21.9469" x2="20.6629" y2="20.5441" stroke="black" stroke-width="5" stroke-linecap="round"/>
<path d="M59.1197 61.3316L62.7908 71.847L70.9015 63.6282L60.5245 59.9081L59.1197 61.3316ZM27.5398 27.9071L30.5086 39.1343L38.6193 30.9155L27.5398 27.9071ZM61.2269 60.6198L34.5639 33.6013L33.1591 35.0249L59.8221 62.0434L61.2269 60.6198Z" fill="black"/>
<path d="M42.2616 26.9126V15.9728L53.0575 26.9126V15.9728" stroke="black" stroke-width="2" stroke-linecap="round" stroke-linejoin="round"/>
<path d="M52.0574 48.7923C52.0574 50.9989 50.2957 52.7649 48.1502 52.7649C46.0048 52.7649 44.243 50.9989 44.243 48.7923C44.243 46.5857 46.0048 44.8196 48.1502 44.8196C50.2957 44.8196 52.0574 46.5857 52.0574 48.7923Z" fill="black" stroke="white" stroke-width="2"/>
<mask id="path-7-outside-1_132_41" maskUnits="userSpaceOnUse" x="58.3121" y="18.0925" width="44" height="84" fill="black">
<rect fill="white" x="58.3121" y="18.0925" width="44" height="84"/>
<path d="M98 43.052V96.8671L69.1098 98L64.578 95.7341L62.3121 90.6359V44.185L64.578 22.0925H70.8092L73.0751 43.052H98Z"/>
</mask>
<path d="M98 43.052H102C102 40.8429 100.209 39.052 98 39.052V43.052ZM98 96.8671L98.1567 100.864C100.303 100.78 102 99.0152 102 96.8671H98ZM64.578 95.7341L60.9228 97.3587C61.2996 98.2065 61.9594 98.8969 62.7892 99.3118L64.578 95.7341ZM62.3121 44.185L58.333 43.7769C58.3191 43.9125 58.3121 44.0487 58.3121 44.185H62.3121ZM64.578 22.0925V18.0925C62.5269 18.0925 60.8082 19.644 60.5989 21.6844L64.578 22.0925ZM70.8092 22.0925L74.7861 21.6626C74.5665 19.6317 72.852 18.0925 70.8092 18.0925V22.0925ZM73.0751 43.052L69.0983 43.482L69.4843 47.052H73.0751V43.052ZM69.1098 98L67.321 101.578C67.9238 101.879 68.5931 102.023 69.2666 101.997L69.1098 98ZM62.3121 90.6359H58.3121C58.3121 91.1955 58.4296 91.749 58.6569 92.2604L62.3121 90.6359ZM94 43.052V96.8671H102V43.052H94ZM66.2913 44.5931L68.5572 22.5006L60.5989 21.6844L58.333 43.7769L66.2913 44.5931ZM64.578 26.0925H70.8092V18.0925H64.578V26.0925ZM66.8324 22.5224L69.0983 43.482L77.052 42.6221L74.7861 21.6626L66.8324 22.5224ZM73.0751 47.052H98V39.052H73.0751V47.052ZM97.8433 92.8701L68.9531 94.0031L69.2666 101.997L98.1567 100.864L97.8433 92.8701ZM70.8987 94.4223L66.3669 92.1564L62.7892 99.3118L67.321 101.578L70.8987 94.4223ZM68.2333 94.1096L65.9674 89.0113L58.6569 92.2604L60.9228 97.3587L68.2333 94.1096ZM66.3121 90.6359V44.185H58.3121V90.6359H66.3121Z" fill="white" mask="url(#path-7-outside-1_132_41)"/>
<path d="M98.9335 44.2659C98.9335 43.4375 98.2619 42.7659 97.4335 42.7659H73.5529L71.7364 23.0876C71.6652 22.3158 71.0178 21.7254 70.2428 21.7254H65.3873C64.6123 21.7254 63.9649 22.3158 63.8936 23.0876L61.9514 44.128C61.9472 44.1739 61.9451 44.2199 61.9451 44.2659V90.5549C61.9451 90.772 61.9922 90.9864 62.0831 91.1835L64.0253 95.3916C64.161 95.6856 64.3882 95.9277 64.6728 96.0819L68.5572 98.186C68.7766 98.3048 69.0222 98.3671 69.2717 98.3671H97.4335C98.2619 98.3671 98.9335 97.6955 98.9335 96.8671V44.2659Z" fill="white" stroke="black" stroke-width="3" stroke-linejoin="round"/>
<rect x="67.211" y="48.5173" width="26.4566" height="33.2543" rx="1.5" stroke="black" stroke-width="3" stroke-linejoin="round"/>
<circle cx="70.8092" cy="89.5029" r="2.83237" stroke="black" stroke-width="2"/>
</svg>
