<svg width="98" height="98" viewBox="0 0 98 98" fill="none" xmlns="http://www.w3.org/2000/svg">
<circle cx="17.3216" cy="47.0145" r="14.8216" fill="white" stroke="black" stroke-width="5"/>
<mask id="path-2-inside-1_132_118" fill="white">
<path d="M45.7786 42.8007C47.5014 41.2229 48.8856 39.3115 49.8473 37.1825C50.809 35.0535 51.3281 32.7513 51.3732 30.4156C51.4182 28.0799 50.9883 25.7594 50.1094 23.595C49.2305 21.4305 47.921 19.4671 46.2604 17.824C44.5998 16.1809 42.6226 14.8923 40.4489 14.0365C38.2752 13.1806 35.9503 12.7753 33.6152 12.8451C31.2802 12.915 28.9836 13.4585 26.8649 14.4428C24.7463 15.427 22.8497 16.8314 21.2902 18.5708L24.5536 21.4966C25.7167 20.1992 27.1313 19.1517 28.7115 18.4176C30.2917 17.6835 32.0046 17.2781 33.7462 17.226C35.4879 17.1739 37.2219 17.4762 38.8432 18.1146C40.4645 18.7529 41.9391 19.714 43.1777 20.9396C44.4163 22.1651 45.393 23.6295 46.0485 25.2439C46.7041 26.8583 47.0248 28.589 46.9912 30.3311C46.9575 32.0732 46.5704 33.7903 45.8531 35.3782C45.1358 36.9661 44.1033 38.3918 42.8184 39.5686L45.7786 42.8007Z"/>
</mask>
<path d="M45.7786 42.8007C47.5014 41.2229 48.8856 39.3115 49.8473 37.1825C50.809 35.0535 51.3281 32.7513 51.3732 30.4156C51.4182 28.0799 50.9883 25.7594 50.1094 23.595C49.2305 21.4305 47.921 19.4671 46.2604 17.824C44.5998 16.1809 42.6226 14.8923 40.4489 14.0365C38.2752 13.1806 35.9503 12.7753 33.6152 12.8451C31.2802 12.915 28.9836 13.4585 26.8649 14.4428C24.7463 15.427 22.8497 16.8314 21.2902 18.5708L24.5536 21.4966C25.7167 20.1992 27.1313 19.1517 28.7115 18.4176C30.2917 17.6835 32.0046 17.2781 33.7462 17.226C35.4879 17.1739 37.2219 17.4762 38.8432 18.1146C40.4645 18.7529 41.9391 19.714 43.1777 20.9396C44.4163 22.1651 45.393 23.6295 46.0485 25.2439C46.7041 26.8583 47.0248 28.589 46.9912 30.3311C46.9575 32.0732 46.5704 33.7903 45.8531 35.3782C45.1358 36.9661 44.1033 38.3918 42.8184 39.5686L45.7786 42.8007Z" fill="white" stroke="black" stroke-width="10" mask="url(#path-2-inside-1_132_118)"/>
<line x1="5.93884" y1="36.9052" x2="23.0539" y2="19.7901" stroke="black" stroke-width="4.5" stroke-linecap="round"/>
<line x1="27.7146" y1="57.6972" x2="44.8297" y2="40.5821" stroke="black" stroke-width="4.5" stroke-linecap="round"/>
<mask id="path-5-inside-2_132_118" fill="white">
<path d="M56.9765 19.3444C57.9246 18.5769 58.6731 17.6058 59.1718 16.4962C59.6704 15.3866 59.9076 14.1641 59.8675 12.9107C59.8274 11.6574 59.511 10.4021 58.9393 9.22908C58.3677 8.05606 57.5541 6.99239 56.5532 6.10941C55.5522 5.22643 54.387 4.54453 53.1356 4.10945C51.8842 3.67436 50.5756 3.49614 49.2976 3.58674C48.0195 3.67733 46.8015 4.03465 45.7253 4.63472C44.649 5.2348 43.7394 6.06378 43.0573 7.06606L46.2189 9.23743C46.6219 8.64527 47.1593 8.1555 47.7952 7.80097C48.4311 7.44643 49.1507 7.23533 49.9057 7.1818C50.6608 7.12828 51.434 7.23357 52.1733 7.49063C52.9126 7.74768 53.6011 8.15055 54.1924 8.67223C54.7838 9.19391 55.2645 9.82233 55.6022 10.5154C55.94 11.2084 56.1269 11.95 56.1506 12.6905C56.1743 13.431 56.0341 14.1533 55.7395 14.8088C55.4449 15.4644 55.0027 16.0382 54.4425 16.4916L56.9765 19.3444Z"/>
</mask>
<path d="M56.9765 19.3444C57.9246 18.5769 58.6731 17.6058 59.1718 16.4962C59.6704 15.3866 59.9076 14.1641 59.8675 12.9107C59.8274 11.6574 59.511 10.4021 58.9393 9.22908C58.3677 8.05606 57.5541 6.99239 56.5532 6.10941C55.5522 5.22643 54.387 4.54453 53.1356 4.10945C51.8842 3.67436 50.5756 3.49614 49.2976 3.58674C48.0195 3.67733 46.8015 4.03465 45.7253 4.63472C44.649 5.2348 43.7394 6.06378 43.0573 7.06606L46.2189 9.23743C46.6219 8.64527 47.1593 8.1555 47.7952 7.80097C48.4311 7.44643 49.1507 7.23533 49.9057 7.1818C50.6608 7.12828 51.434 7.23357 52.1733 7.49063C52.9126 7.74768 53.6011 8.15055 54.1924 8.67223C54.7838 9.19391 55.2645 9.82233 55.6022 10.5154C55.94 11.2084 56.1269 11.95 56.1506 12.6905C56.1743 13.431 56.0341 14.1533 55.7395 14.8088C55.4449 15.4644 55.0027 16.0382 54.4425 16.4916L56.9765 19.3444Z" fill="white" stroke="black" stroke-width="10" mask="url(#path-5-inside-2_132_118)"/>
<line x1="37.6127" y1="15.0884" x2="44.7958" y2="7.90529" stroke="black" stroke-width="4" stroke-linecap="round"/>
<line x1="49.4304" y1="24.2409" x2="56.5601" y2="16.9764" stroke="black" stroke-width="4" stroke-linecap="round"/>
<circle cx="51.9649" cy="47.0145" r="14.8216" fill="white" stroke="black" stroke-width="5"/>
<mask id="path-9-inside-3_132_118" fill="white">
<path d="M80.4219 42.8007C82.1446 41.2229 83.5288 39.3115 84.4905 37.1825C85.4522 35.0535 85.9714 32.7513 86.0164 30.4156C86.0615 28.0799 85.6315 25.7594 84.7526 23.595C83.8737 21.4305 82.5643 19.4671 80.9036 17.824C79.243 16.1809 77.2659 14.8923 75.0922 14.0365C72.9185 13.1806 70.5935 12.7753 68.2585 12.8451C65.9234 12.915 63.6269 13.4585 61.5082 14.4428C59.3895 15.427 57.4929 16.8314 55.9335 18.5708L59.1968 21.4966C60.3599 20.1992 61.7745 19.1517 63.3548 18.4176C64.935 17.6835 66.6479 17.2781 68.3895 17.226C70.1311 17.1739 71.8652 17.4762 73.4865 18.1146C75.1077 18.7529 76.5824 19.714 77.821 20.9396C79.0596 22.1651 80.0363 23.6295 80.6918 25.2439C81.3473 26.8583 81.668 28.589 81.6344 30.3311C81.6008 32.0732 81.2136 33.7903 80.4963 35.3782C79.779 36.9661 78.7466 38.3918 77.4617 39.5686L80.4219 42.8007Z"/>
</mask>
<path d="M80.4219 42.8007C82.1446 41.2229 83.5288 39.3115 84.4905 37.1825C85.4522 35.0535 85.9714 32.7513 86.0164 30.4156C86.0615 28.0799 85.6315 25.7594 84.7526 23.595C83.8737 21.4305 82.5643 19.4671 80.9036 17.824C79.243 16.1809 77.2659 14.8923 75.0922 14.0365C72.9185 13.1806 70.5935 12.7753 68.2585 12.8451C65.9234 12.915 63.6269 13.4585 61.5082 14.4428C59.3895 15.427 57.4929 16.8314 55.9335 18.5708L59.1968 21.4966C60.3599 20.1992 61.7745 19.1517 63.3548 18.4176C64.935 17.6835 66.6479 17.2781 68.3895 17.226C70.1311 17.1739 71.8652 17.4762 73.4865 18.1146C75.1077 18.7529 76.5824 19.714 77.821 20.9396C79.0596 22.1651 80.0363 23.6295 80.6918 25.2439C81.3473 26.8583 81.668 28.589 81.6344 30.3311C81.6008 32.0732 81.2136 33.7903 80.4963 35.3782C79.779 36.9661 78.7466 38.3918 77.4617 39.5686L80.4219 42.8007Z" fill="white" stroke="black" stroke-width="10" mask="url(#path-9-inside-3_132_118)"/>
<line x1="40.5821" y1="36.9052" x2="57.6972" y2="19.7901" stroke="black" stroke-width="4.5" stroke-linecap="round"/>
<line x1="62.3578" y1="57.6972" x2="79.4729" y2="40.5821" stroke="black" stroke-width="4.5" stroke-linecap="round"/>
<mask id="path-12-inside-4_132_118" fill="white">
<path d="M91.6197 19.3444C92.5679 18.5769 93.3164 17.6058 93.815 16.4962C94.3136 15.3866 94.5509 14.1641 94.5108 12.9107C94.4707 11.6574 94.1542 10.4021 93.5826 9.22908C93.011 8.05606 92.1974 6.99239 91.1964 6.10941C90.1954 5.22643 89.0302 4.54453 87.7788 4.10945C86.5275 3.67436 85.2189 3.49614 83.9408 3.58674C82.6628 3.67733 81.4448 4.03465 80.3685 4.63472C79.2923 5.2348 78.3826 6.06378 77.7006 7.06606L80.8622 9.23743C81.2652 8.64527 81.8026 8.1555 82.4384 7.80097C83.0743 7.44643 83.7939 7.23533 84.549 7.1818C85.3041 7.12828 86.0772 7.23357 86.8165 7.49063C87.5559 7.74768 88.2443 8.15055 88.8357 8.67223C89.4271 9.19391 89.9078 9.82233 90.2455 10.5154C90.5832 11.2084 90.7702 11.95 90.7939 12.6905C90.8175 13.431 90.6774 14.1533 90.3828 14.8088C90.0882 15.4644 89.646 16.0382 89.0858 16.4916L91.6197 19.3444Z"/>
</mask>
<path d="M91.6197 19.3444C92.5679 18.5769 93.3164 17.6058 93.815 16.4962C94.3136 15.3866 94.5509 14.1641 94.5108 12.9107C94.4707 11.6574 94.1542 10.4021 93.5826 9.22908C93.011 8.05606 92.1974 6.99239 91.1964 6.10941C90.1954 5.22643 89.0302 4.54453 87.7788 4.10945C86.5275 3.67436 85.2189 3.49614 83.9408 3.58674C82.6628 3.67733 81.4448 4.03465 80.3685 4.63472C79.2923 5.2348 78.3826 6.06378 77.7006 7.06606L80.8622 9.23743C81.2652 8.64527 81.8026 8.1555 82.4384 7.80097C83.0743 7.44643 83.7939 7.23533 84.549 7.1818C85.3041 7.12828 86.0772 7.23357 86.8165 7.49063C87.5559 7.74768 88.2443 8.15055 88.8357 8.67223C89.4271 9.19391 89.9078 9.82233 90.2455 10.5154C90.5832 11.2084 90.7702 11.95 90.7939 12.6905C90.8175 13.431 90.6774 14.1533 90.3828 14.8088C90.0882 15.4644 89.646 16.0382 89.0858 16.4916L91.6197 19.3444Z" fill="white" stroke="black" stroke-width="10" mask="url(#path-12-inside-4_132_118)"/>
<line x1="72.2559" y1="15.0884" x2="79.439" y2="7.90529" stroke="black" stroke-width="4" stroke-linecap="round"/>
<line x1="84.0737" y1="24.2409" x2="91.2033" y2="16.9764" stroke="black" stroke-width="4" stroke-linecap="round"/>
<circle cx="66.4953" cy="66.5053" r="26.7247" fill="white" stroke="white" stroke-width="4"/>
<line x1="48.6179" y1="50.8643" x2="48.5259" y2="50.961" stroke="black" stroke-width="3.5" stroke-linecap="round"/>
<path d="M45.1912 55.4093C42.472 60.6302 41.7645 66.6679 43.2032 72.376C44.6419 78.0841 48.1266 83.0651 52.9955 86.3735C57.8645 89.6818 63.7789 91.0871 69.6156 90.3224C75.4523 89.5577 80.8051 86.6764 84.6575 82.2255C88.51 77.7746 90.594 72.064 90.5137 66.1779C90.4335 60.2918 88.1946 54.6402 84.2223 50.2959C80.2499 45.9517 74.8206 43.2173 68.9652 42.6121C63.1098 42.0068 57.2359 43.5727 52.4589 47.0126" stroke="black" stroke-width="3.5" stroke-linecap="round"/>
<line x1="66.6046" y1="49.6889" x2="66.6046" y2="83.3218" stroke="black" stroke-width="2" stroke-linecap="round" stroke-dasharray="2 5"/>
<line x1="83.3118" y1="66.6145" x2="49.6789" y2="66.6145" stroke="black" stroke-width="2" stroke-linecap="round" stroke-dasharray="2 5"/>
<circle cx="66.4954" cy="66.5053" r="6.12659" fill="white" stroke="white" stroke-width="2"/>
<circle cx="66.4954" cy="66.5053" r="3.45412" fill="white" stroke="black" stroke-width="2"/>
</svg>
