<svg width="100" height="99" viewBox="0 0 100 99" fill="none" xmlns="http://www.w3.org/2000/svg">
<path d="M98 49C98 60.2562 94.1246 71.1693 87.0252 79.9044C79.9259 88.6395 70.0356 94.664 59.0171 96.9652L55.0103 77.7791C61.6214 76.3984 67.5556 72.7837 71.8151 67.5426C76.0747 62.3016 78.4 55.7537 78.4 49L98 49Z" fill="#E8B73B" stroke="black" stroke-width="3"/>
<path d="M98 49C98 51.5874 97.7951 54.1707 97.3871 56.7257L78.0323 53.6354C78.277 52.1024 78.4 50.5524 78.4 49H98Z" stroke="black" stroke-width="3"/>
<path d="M98 49C98 60.2562 94.1246 71.1693 87.0252 79.9044C79.9259 88.6395 70.0356 94.664 59.0171 96.9652L57.9179 91.7019C67.7274 89.6533 76.5324 84.2898 82.8527 76.5132C89.173 68.7366 92.6232 59.0211 92.6232 49H98Z" stroke="black" stroke-width="3"/>
<path d="M63.9729 44H98V24H38.4525V29H23.9909L21.4389 34.5H16.3348L12.5068 24H7.40271V34.5H4V39.5H38.4525L63.9729 44Z" stroke="black" stroke-width="3" stroke-linecap="square" stroke-dasharray="6 6"/>
<path d="M60 48.5V57.5H53.5H32.5L21 59.5V46L32.5 48L53.5 48.3818L60 48.5Z" fill="#E8B73B"/>
<path d="M32.5 48L21 46V59.5L32.5 57.5M32.5 48V57.5M32.5 48L53.5 48.3818M32.5 57.5H53.5M53.5 57.5H60V48.5L53.5 48.3818M53.5 57.5V48.3818" stroke="black" stroke-width="2" stroke-linecap="round"/>
<path d="M37 20H97.5V15H93.8952V16.875H90.3387V15H86.7823V16.875H83.2258V15H79.6694V16.875H76.1129V15H72.5564V16.875H69V15H65.4435V16.875H61.8871V15L58.3306 15V16.875H54.7742V15H51.2177V16.875H47.6613V15H44.1048V16.875H40.5484V15H37V20Z" fill="#E8B73B" stroke="black" stroke-width="2" stroke-linecap="round"/>
</svg>
